<?xml version="1.0" encoding="utf-8"?>
<!-- Generator: Adobe Illustrator 16.0.0, SVG Export Plug-In . SVG Version: 6.00 Build 0)  -->
<!DOCTYPE svg PUBLIC "-//W3C//DTD SVG 1.1//EN" "http://www.w3.org/Graphics/SVG/1.1/DTD/svg11.dtd">
<svg version="1.1" id="Layer_1" xmlns="http://www.w3.org/2000/svg" xmlns:xlink="http://www.w3.org/1999/xlink" x="0px" y="0px"
	 width="219px" height="220px" viewBox="0 0 219 220" enable-background="new 0 0 219 220" xml:space="preserve">
<g opacity="0.5">
	<path fill="#1BACAA" d="M108.824,180.871c-7.935,0-15.726-1.303-23.157-3.875c-0.859-0.297-1.313-1.235-1.017-2.095
		c0.299-0.858,1.234-1.313,2.094-1.017c7.083,2.453,14.512,3.695,22.08,3.695c14.138,0,27.671-4.323,39.137-12.502
		c0.741-0.529,1.77-0.356,2.295,0.384c0.53,0.739,0.358,1.768-0.384,2.295C137.845,176.338,123.65,180.871,108.824,180.871z
		 M80.099,174.639c-0.23,0-0.462-0.047-0.684-0.149c-14.355-6.569-26.254-17.918-33.504-31.958c-0.11-0.213-0.169-0.438-0.182-0.662
		c-0.173-0.143-0.318-0.324-0.423-0.538c-4.808-9.761-1.63-10.758,2.952-1.455c0.101,0.206,0.155,0.42,0.167,0.635
		c0.167,0.135,0.307,0.308,0.411,0.511c6.915,13.389,18.26,24.211,31.95,30.476c0.827,0.377,1.189,1.354,0.811,2.18
		C81.32,174.283,80.723,174.639,80.099,174.639z M163.157,154.482c-0.357,0-0.717-0.115-1.018-0.354
		c-0.716-0.561-0.837-1.597-0.274-2.31c9.439-11.99,14.431-26.413,14.431-41.711c0-0.909,0.737-1.646,1.647-1.646
		c0.906,0,1.645,0.736,1.645,1.646c0,16.044-5.233,31.171-15.137,43.748C164.127,154.268,163.644,154.482,163.157,154.482z
		 M175.854,94.83c-0.737,0-1.408-0.498-1.597-1.245c-3.664-14.564-12.268-27.67-24.223-36.905c-0.181-0.14-0.324-0.311-0.43-0.498
		c-0.21-0.051-0.411-0.143-0.595-0.279c-11.688-8.679-25.584-13.267-40.187-13.267c-0.641,0-1.282,0.008-1.92,0.027
		c-0.907,0.011-1.667-0.691-1.691-1.598c-0.024-0.909,0.689-1.667,1.6-1.692c0.668-0.017,1.339-0.028,2.012-0.028
		c15.315,0,29.889,4.812,42.149,13.916c0.19,0.143,0.345,0.32,0.453,0.516c0.22,0.054,0.432,0.152,0.621,0.298
		c12.535,9.684,21.557,23.43,25.402,38.706c0.222,0.883-0.312,1.776-1.193,1.999C176.12,94.813,175.987,94.83,175.854,94.83z
		 M47.993,78.909c-0.263,0-0.532-0.064-0.782-0.199c-0.797-0.432-1.097-1.431-0.663-2.23c10.896-20.135,30.913-33.816,53.55-36.602
		c0.897-0.111,1.724,0.53,1.834,1.434c0.111,0.901-0.531,1.723-1.432,1.833c-21.582,2.654-40.669,15.702-51.058,34.901
		C49.146,78.597,48.579,78.909,47.993,78.909z"/>
	<path fill="#1BACAA" d="M108.824,200.618c-15.249,0-30.324-3.862-43.598-11.173c-0.209-0.113-0.383-0.268-0.519-0.449
		c-0.223-0.022-0.446-0.089-0.653-0.207c-13.634-7.773-25.079-19.019-33.098-32.514c-0.463-0.781-0.206-1.792,0.574-2.257
		c0.781-0.464,1.792-0.206,2.256,0.575c7.728,13.007,18.758,23.845,31.898,31.335c0.201,0.116,0.367,0.267,0.497,0.438
		c0.217,0.021,0.43,0.086,0.632,0.195c12.79,7.045,27.316,11.107,42.01,11.107c0.461,0,0.922,0.33,1.381,0.33
		c0.01,0,0.017,0,0.025,0c0.897,0,1.631,0.381,1.646,1.278c0.014,0.911-0.711,1.485-1.621,1.499
		C109.78,200.785,109.303,200.618,108.824,200.618z M116.799,200.268c-0.843,0-1.562-0.645-1.637-1.5
		c-0.081-0.905,0.586-1.705,1.492-1.786c21.705-1.931,41.787-11.882,56.553-28.03c0.612-0.672,1.654-0.717,2.325-0.104
		c0.67,0.614,0.715,1.653,0.104,2.326c-15.32,16.754-36.164,27.084-58.688,29.087C116.896,200.266,116.846,200.268,116.799,200.268z
		 M186.029,155.788c-0.275,0-0.556-0.071-0.814-0.219c-0.788-0.451-1.063-1.456-0.612-2.243
		c7.485-13.098,11.441-28.042,11.441-43.218c0-0.555-0.006-1.109-0.014-1.663c-0.006-0.229,0.037-0.45,0.117-0.649
		c-0.092-0.195-0.144-0.412-0.153-0.641c-0.502-15.146-4.964-29.945-12.896-42.798c-0.479-0.773-0.238-1.788,0.536-2.265
		c0.773-0.477,1.785-0.237,2.263,0.536c8.236,13.341,12.865,28.701,13.389,44.418c0.008,0.238-0.035,0.466-0.119,0.672
		c0.093,0.204,0.149,0.428,0.152,0.665c0.013,0.574,0.018,1.149,0.018,1.725c0,15.748-4.106,31.256-11.875,44.851
		C187.157,155.489,186.601,155.788,186.029,155.788z M24.255,139.127c-0.695,0-1.341-0.443-1.565-1.139
		c-2.904-8.979-4.376-18.357-4.376-27.88c0-13.087,2.734-25.714,8.124-37.528c0.378-0.827,1.354-1.19,2.18-0.814
		c0.826,0.378,1.192,1.354,0.814,2.18c-5.193,11.382-7.826,23.55-7.826,36.162c0,9.179,1.417,18.216,4.215,26.866
		c0.278,0.866-0.195,1.794-1.059,2.073C24.594,139.1,24.422,139.127,24.255,139.127z M30.887,69.025
		c-0.268,0-0.539-0.066-0.791-0.204c-0.796-0.438-1.087-1.438-0.649-2.234c7.555-13.752,18.618-25.373,31.991-33.606
		c0.201-0.124,0.42-0.2,0.641-0.229c0.129-0.182,0.298-0.342,0.502-0.464c13.461-8.015,28.89-12.399,44.621-12.675
		c0.913-0.025,1.659,0.707,1.674,1.617c0.017,0.908-0.708,1.658-1.616,1.674c-15.159,0.266-30.027,4.49-42.994,12.212
		c-0.197,0.117-0.41,0.187-0.623,0.218c-0.123,0.176-0.286,0.33-0.481,0.451C50.273,43.718,39.612,54.918,32.33,68.17
		C32.031,68.716,31.468,69.025,30.887,69.025z M180.839,59.674c-0.51,0-1.012-0.236-1.332-0.681
		c-12.847-17.732-31.665-29.917-52.99-34.31c-0.89-0.182-1.464-1.053-1.28-1.944c0.183-0.889,1.052-1.465,1.942-1.279
		c22.132,4.559,41.661,17.203,54.993,35.602c0.53,0.735,0.367,1.765-0.368,2.298C181.51,59.571,181.173,59.674,180.839,59.674z"/>
	<path fill="#1BACAA" d="M100.474,220.052c-0.042,0-0.085-0.001-0.128-0.004c-8.906-0.679-17.699-2.437-26.138-5.225
		c-0.863-0.285-1.332-1.216-1.047-2.078c0.286-0.863,1.217-1.332,2.079-1.047c8.186,2.705,16.717,4.409,25.355,5.067
		c0.906,0.068,1.585,0.859,1.517,1.765C102.047,219.395,101.326,220.052,100.474,220.052z M120.181,219.781
		c-0.831,0-1.547-0.629-1.636-1.475c-0.092-0.905,0.564-1.714,1.468-1.808c15.204-1.58,29.599-6.297,42.783-14.016
		c0.198-0.116,0.41-0.187,0.625-0.213c0.128-0.177,0.29-0.328,0.488-0.45c1.835-1.103,3.668-2.282,5.443-3.504
		c0.749-0.514,1.774-0.324,2.289,0.426c0.516,0.749,0.326,1.772-0.424,2.288c-1.829,1.258-3.718,2.473-5.611,3.612
		c-0.204,0.121-0.424,0.195-0.641,0.223c-0.132,0.181-0.3,0.339-0.508,0.458c-13.59,7.96-28.431,12.82-44.104,14.449
		C120.296,219.778,120.237,219.781,120.181,219.781z M62.504,210.024c-0.237,0-0.476-0.052-0.702-0.158
		c-2.007-0.949-4.012-1.972-5.958-3.04c-0.208-0.114-0.384-0.267-0.518-0.444c-0.222-0.021-0.446-0.089-0.652-0.206
		c-13.509-7.629-25.515-18.281-34.725-30.801c-0.539-0.731-0.381-1.762,0.351-2.3s1.762-0.381,2.3,0.35
		c8.937,12.148,20.587,22.482,33.693,29.886c0.2,0.114,0.369,0.263,0.5,0.437c0.215,0.021,0.431,0.085,0.634,0.194
		c1.887,1.036,3.833,2.028,5.779,2.948c0.823,0.388,1.175,1.369,0.787,2.19C63.711,209.676,63.119,210.024,62.504,210.024z
		 M180.654,193.227c-0.456,0-0.909-0.188-1.234-0.557c-0.601-0.681-0.536-1.722,0.145-2.323c6.485-5.72,12.272-12.222,17.197-19.318
		c0.519-0.747,1.546-0.932,2.291-0.413c0.746,0.519,0.932,1.544,0.415,2.29c-5.078,7.315-11.042,14.014-17.725,19.91
		C181.43,193.093,181.039,193.227,180.654,193.227z M11.083,159.172c-0.611,0-1.197-0.34-1.481-0.926
		c-3.898-8.018-6.808-16.504-8.65-25.219c-0.188-0.889,0.38-1.761,1.27-1.949c0.888-0.186,1.762,0.381,1.95,1.27
		c1.787,8.452,4.61,16.682,8.39,24.459c0.397,0.817,0.057,1.803-0.761,2.2C11.569,159.119,11.325,159.172,11.083,159.172z
		 M207.841,156.461c-0.229,0-0.459-0.049-0.679-0.147c-0.827-0.374-1.195-1.35-0.82-2.178c6.271-13.868,9.451-28.682,9.451-44.028
		c0-1.104-0.018-2.224-0.053-3.326c-0.008-0.229,0.034-0.451,0.114-0.652c-0.096-0.194-0.15-0.412-0.161-0.64
		c-0.091-2.152-0.248-4.326-0.469-6.463c-0.094-0.904,0.565-1.713,1.469-1.806c0.906-0.095,1.712,0.564,1.808,1.469
		c0.225,2.204,0.388,4.445,0.479,6.659c0.013,0.236-0.027,0.464-0.11,0.671c0.097,0.199,0.151,0.423,0.161,0.659
		c0.033,1.138,0.052,2.29,0.052,3.428c0,15.818-3.279,31.086-9.742,45.384C209.066,156.1,208.467,156.461,207.841,156.461z
		 M1.654,84.055C3.122,78,5.111,72.07,7.614,66.296c0.362-0.834,1.33-1.218,2.164-0.855c0.834,0.361,1.218,1.329,0.856,2.164
		C8.128,73.387,6.153,79.33,4.716,85.4C2.814,93.435-0.399,92.522,1.654,84.055z M214.723,87.527c-0.751,0-1.427-0.517-1.603-1.281
		c-1.919-8.423-4.868-16.606-8.772-24.325c-0.408-0.811-0.083-1.8,0.728-2.212c0.812-0.408,1.803-0.084,2.214,0.727
		c4.02,7.958,7.063,16.394,9.041,25.08c0.2,0.886-0.354,1.768-1.24,1.969C214.968,87.514,214.846,87.527,214.723,87.527z
		 M18.58,51.294c-0.314,0-0.634-0.091-0.915-0.28c-0.755-0.506-0.956-1.528-0.45-2.283c4.964-7.394,10.821-14.183,17.415-20.184
		c0.673-0.612,1.712-0.563,2.324,0.109c0.612,0.672,0.563,1.713-0.109,2.324c-6.397,5.823-12.082,12.412-16.898,19.584
		C19.631,51.038,19.111,51.294,18.58,51.294z M195.365,46.111c-0.494,0-0.988-0.225-1.311-0.651
		c-9.126-12.011-20.934-22.163-34.15-29.36c-0.202-0.11-0.374-0.258-0.507-0.428c-0.217-0.019-0.433-0.08-0.639-0.187
		c-1.904-1.008-3.866-1.969-5.823-2.857c-0.829-0.375-1.195-1.349-0.818-2.176c0.371-0.83,1.351-1.197,2.176-0.82
		c2.02,0.914,4.039,1.906,6.006,2.943c0.211,0.113,0.388,0.264,0.523,0.44c0.226,0.018,0.448,0.082,0.655,0.194
		c13.624,7.418,25.793,17.881,35.198,30.26c0.55,0.724,0.408,1.756-0.316,2.307C196.063,46.002,195.712,46.111,195.365,46.111z
		 M45.981,23.158c-0.515,0-1.021-0.239-1.343-0.692c-0.526-0.741-0.353-1.768,0.389-2.294c1.806-1.284,3.674-2.528,5.554-3.701
		c0.202-0.125,0.418-0.202,0.639-0.234c0.127-0.181,0.295-0.341,0.498-0.465C65.19,7.6,79.953,2.507,95.592,0.637
		c0.9-0.105,1.721,0.536,1.83,1.438c0.108,0.902-0.536,1.72-1.438,1.828c-15.17,1.814-29.49,6.755-42.559,14.683
		c-0.198,0.121-0.408,0.193-0.623,0.224c-0.124,0.176-0.285,0.333-0.48,0.453c-1.822,1.139-3.635,2.344-5.39,3.59
		C46.644,23.06,46.311,23.158,45.981,23.158z M141.317,8.085c-0.161,0-0.327-0.024-0.492-0.076
		c-8.222-2.575-16.78-4.146-25.431-4.669c-0.908-0.055-1.601-0.836-1.544-1.742c0.054-0.907,0.828-1.597,1.743-1.543
		c8.918,0.54,17.738,2.16,26.215,4.814c0.869,0.271,1.351,1.194,1.079,2.062C142.667,7.634,142.021,8.085,141.317,8.085z"/>
</g>
<g>
	<g>
		<path fill="#F31361" d="M157.429,58.778c5.402,0,10.806,0,16.207,0c0.312,0,0.607,0.063,0.891,0.157v-2.783
			c-5.699,0-11.398,0-17.098,0C157.429,57.028,157.429,57.902,157.429,58.778z"/>
	</g>
	<g>
		<path fill="#F31361" d="M47.232,57.443c0-4.811,0-9.62,0-14.43h-9.74c0,4.81,0,9.619,0,14.43
			C40.738,57.443,43.984,57.443,47.232,57.443z"/>
	</g>
	<g>
		<path fill="#F31361" d="M140.043,48.498c0-1.829,0-3.656,0-5.484h-5.233C136.943,44.413,138.744,46.271,140.043,48.498z"/>
	</g>
	<g>
		<path fill="#F31361" d="M44.994,108.637c1.926,0,3.853,0,5.778,0c9.731-1.607,19.461-3.216,29.19-4.824
			c20.517-3.389,41.034-6.778,61.553-10.169c1.18-0.194,1.896-0.584-0.021-0.584c-3.767,0-9.488,0-12.048,0
			c-1.002,0-2.027-0.55-2.515-1.442c-3.214-5.893-6.427-11.787-9.641-17.679c-0.487,0-0.974,0-1.461,0c0,5.404,0,10.806,0,16.209
			c0,1.587-1.324,2.912-2.911,2.912c-3.854,0-58.923,0-62.776,0c-0.858,0-1.509-0.312-1.975-0.781
			c-0.028-0.023-0.053-0.051-0.082-0.076c-0.025-0.026-0.051-0.051-0.076-0.081c-0.467-0.465-0.78-1.117-0.78-1.974
			c0-5.106,0-10.213,0-15.32c-3.248,0-6.494,0-9.74,0c0,5.107,0,10.213,0,15.32c0,1.587-1.325,2.912-2.912,2.912
			c-3.387,0-6.773,0-10.16,0l18.396,16.591C43.354,109.036,44.13,108.637,44.994,108.637z"/>
	</g>
	<g>
		<path fill="#F31361" d="M157.429,73.938c0,1.023,0,2.047,0,3.071c5.699,0,11.398,0,17.098,0V73.78
			c-0.283,0.094-0.578,0.158-0.891,0.158C168.234,73.938,162.831,73.938,157.429,73.938z"/>
	</g>
	<g>
		<path fill="#F31361" d="M174.526,93.06c-1.928,0-3.854,0-5.779,0c-9.729,1.607-19.461,3.214-29.19,4.822
			c-20.571,3.399-41.143,6.797-61.715,10.197c-1.125,0.186-1.127,0.559,0,0.559c3.64,0,7.282,0,10.923,0
			c1.586,0,2.912,1.324,2.912,2.912c0,4.726,0,9.451,0,14.178c0,1.588-1.326,2.912-2.912,2.912c-8.276,0-16.553,0-24.831,0
			c0,2.169,0,4.338,0,6.506c7.661,0,15.322,0,22.981,0c0.857,0,1.508,0.312,1.975,0.781c0.028,0.024,0.053,0.051,0.081,0.076
			c0.024,0.027,0.052,0.051,0.076,0.08c0.468,0.467,0.779,1.117,0.779,1.975c0,4.228,0,8.456,0,12.685
			c4.806-13.323,9.612-26.646,14.417-39.968c0.446-1.232,1.437-2.137,2.808-2.137c5.308,0,10.619,0,15.928,0
			c1.24,0,2.063,0.64,2.481,1.492c0.127,0.192,0.237,0.406,0.324,0.645c4.678,12.641,9.356,25.281,14.033,37.921
			c0-12.382,0-24.764,0-37.146c0-1.588,1.324-2.912,2.911-2.912c5.973,0,11.944,0,17.916,0c0.991,0,2.041,0.546,2.514,1.442
			c5.167,9.787,10.333,19.576,15.499,29.362c0-9.296,0-18.594,0-27.892c0-0.858,0.311-1.509,0.78-1.976
			c0.022-0.027,0.05-0.053,0.075-0.08c0.026-0.025,0.053-0.053,0.08-0.076c0.466-0.468,1.118-0.78,1.976-0.78
			c4.119,0,8.237,0,12.356,0l-17.305-16.492C176.089,92.703,175.344,93.06,174.526,93.06z"/>
	</g>
	<g>
		<path fill="#F31361" d="M133.713,71.177c2.11,3.757,4.222,7.514,6.33,11.272c0-5.829,0-11.657,0-17.485
			C138.539,67.5,136.354,69.638,133.713,71.177z"/>
	</g>
	<g>
		<path fill="#F31361" d="M115.32,134.654c-11.277,0.416-11.277,17.074,0,17.491c4.627-0.172,8.925-3.849,8.744-8.746
			C123.895,138.772,120.218,134.475,115.32,134.654z"/>
	</g>
	<g>
		<path fill="#F31361" d="M80.665,58.778c5.403,0,16.207,0,16.207,0l-0.015-2.625c0,0-10.494,0-16.192,0
			C80.665,57.028,80.665,57.902,80.665,58.778z"/>
	</g>
	<g>
		<path fill="#F31361" d="M96.857,77.01l0.015-3.071c0,0-10.804,0-16.207,0c0,1.023,0,2.047,0,3.071
			C86.363,77.01,96.857,77.01,96.857,77.01z"/>
	</g>
	<g>
		<path fill="#F31361" d="M173.795,168.996c-4.248-6.985-8.493-13.967-12.739-20.951c0,9.616,0,19.234,0,28.851h17.503
			c-0.178-0.323-0.346-0.631-0.509-0.901C176.631,173.661,175.213,171.33,173.795,168.996z"/>
	</g>
	<g>
		<path fill="#F31361" d="M80.671,176.12c2.618-7.253,5.233-14.507,7.852-21.76c0.054-0.153-0.117-0.257-0.268-0.174
			c-0.403,0.218-0.858,0.344-1.34,0.344c-7.66,0-15.321,0-22.981,0c0,7.455,0,14.909,0,22.365h16.601
			C80.538,176.64,80.578,176.379,80.671,176.12z"/>
	</g>
	<g>
		<path fill="#F31361" d="M106.973,168.094c-1.082,2.936-2.164,5.866-3.246,8.802h23.199c-1.034-2.936-2.07-5.866-3.103-8.802
			C118.207,168.094,112.59,168.094,106.973,168.094z"/>
	</g>
	<path fill="#0B1742" d="M129.054,57.243c0-2.102-1.957-4.892-4.06-4.892H112.92v9.782h12.074
		C127.097,62.133,129.054,59.343,129.054,57.243z M115.815,59.21v-3.948h8.679c0.848,0,1.637,1.126,1.637,1.974
		c0,0.846-0.789,1.974-1.637,1.974H115.815z"/>
	<path fill="#0B1742" d="M196.982,108.637c-1.019,0-2.037,0-3.056,0c-4.119,0-8.237,0-12.356,0c-0.857,0-1.51,0.312-1.976,0.78
		c-0.027,0.023-0.054,0.051-0.08,0.076c-0.025,0.027-0.053,0.053-0.075,0.08c-0.47,0.467-0.78,1.118-0.78,1.976
		c0,9.298,0,18.596,0,27.892c-5.166-9.786-10.332-19.575-15.499-29.362c-0.473-0.896-1.522-1.442-2.514-1.442
		c-5.972,0-11.943,0-17.916,0c-1.587,0-2.911,1.324-2.911,2.912c0,12.382,0,24.764,0,37.146c-4.677-12.64-9.355-25.28-14.033-37.921
		c-0.087-0.239-0.197-0.452-0.324-0.645c-0.418-0.852-1.241-1.492-2.481-1.492c-5.31,0-10.62,0-15.928,0
		c-1.372,0-2.362,0.905-2.808,2.137c-4.805,13.322-9.611,26.645-14.417,39.968c0-4.229,0-8.457,0-12.685
		c0-0.857-0.312-1.508-0.779-1.975c-0.023-0.029-0.052-0.053-0.076-0.08c-0.028-0.025-0.053-0.052-0.081-0.076
		c-0.467-0.469-1.118-0.781-1.975-0.781c-7.66,0-15.321,0-22.981,0c0-2.168,0-4.337,0-6.506c8.278,0,16.555,0,24.831,0
		c1.586,0,2.912-1.324,2.912-2.912c0-4.727,0-9.452,0-14.178c0-1.588-1.326-2.912-2.912-2.912c-3.641,0-7.283,0-10.923,0
		c-1.127,0-1.125-0.373,0-0.559c20.572-3.399,41.144-6.797,61.715-10.197c9.729-1.607,19.461-3.215,29.19-4.822
		c1.926,0,3.852,0,5.779,0c0.817,0,1.562-0.356,2.096-0.915c0.5-0.525,0.815-1.229,0.815-1.997c0-3.41,0-6.819,0-10.227
		c0-0.857-0.312-1.509-0.781-1.975c-0.024-0.028-0.05-0.053-0.075-0.081c-0.027-0.024-0.052-0.052-0.081-0.076
		c-0.466-0.468-1.117-0.779-1.974-0.779c-5.699,0-11.398,0-17.098,0c0-1.024,0-2.048,0-3.071c5.402,0,10.806,0,16.207,0
		c0.312,0,0.607-0.064,0.891-0.158c1.16-0.384,2.021-1.478,2.021-2.753c0-3.113,0-6.225,0-9.337c0-1.276-0.86-2.37-2.021-2.755
		c-0.283-0.094-0.578-0.157-0.891-0.157c-5.401,0-10.805,0-16.207,0c0-0.875,0-1.75,0-2.625c5.699,0,11.398,0,17.098,0
		c1.587,0,2.911-1.325,2.911-2.912c0-3.41,0-6.819,0-10.227c0-1.587-1.324-2.912-2.911-2.912c-10.523,0-21.048,0-31.571,0
		c-1.587,0-2.912,1.324-2.912,2.912c0,1.829,0,3.656,0,5.484c-1.299-2.227-3.1-4.085-5.233-5.484
		c-2.699-1.773-5.935-2.808-9.369-2.912c-3.745-0.114-75.297,0-75.297,0c-1.587,0-2.912,1.324-2.912,2.912c0,4.81,0,9.619,0,14.43
		c-3.248,0-6.494,0-9.74,0c0-4.811,0-9.62,0-14.43c0-1.587-1.325-2.912-2.912-2.912c-3.854,0-7.707,0-11.561,0
		c-1.587,0-2.912,1.324-2.912,2.912c0,15.711,0,31.422,0,47.134c0,1.587,1.325,2.912,2.912,2.912c0.466,0,0.934,0,1.401,0
		c3.387,0,6.773,0,10.16,0c1.587,0,2.912-1.325,2.912-2.912c0-5.106,0-10.213,0-15.32c3.246,0,6.492,0,9.74,0
		c0,5.107,0,10.213,0,15.32c0,0.856,0.312,1.509,0.78,1.974c0.025,0.029,0.05,0.054,0.076,0.081
		c0.028,0.025,0.053,0.053,0.082,0.076c0.465,0.469,1.116,0.781,1.975,0.781c3.853,0,58.923,0,62.776,0
		c1.587,0,2.911-1.325,2.911-2.912c0-5.404,0-10.806,0-16.209c0.487,0,0.974,0,1.461,0c3.214,5.893,6.427,11.787,9.641,17.679
		c0.487,0.892,1.513,1.442,2.515,1.442c2.56,0,8.281,0,12.048,0c1.917,0,1.2,0.39,0.021,0.584
		c-20.519,3.391-41.036,6.78-61.553,10.169c-9.729,1.607-19.459,3.216-29.19,4.824c-1.926,0-3.853,0-5.778,0
		c-0.864,0-1.641,0.399-2.178,1.014c-0.449,0.513-0.734,1.173-0.734,1.898c0,21.781,0,43.563,0,65.347
		c0,1.587,1.325,2.913,2.912,2.913c5.343,0,10.686,0,16.029,0c1.587,0,2.911-1.326,2.911-2.913c0-7.456,0-14.91,0-22.365
		c7.661,0,15.322,0,22.981,0c0.482,0,0.937-0.126,1.34-0.344c0.151-0.083,0.322,0.021,0.268,0.174
		c-2.619,7.253-5.234,14.507-7.852,21.76c-0.093,0.259-0.133,0.52-0.137,0.775c-0.026,1.531,1.418,2.913,2.945,2.913
		c5.718,0,11.437,0,17.154,0c1.38,0,2.354-0.908,2.808-2.141c0.095-0.257,0.191-0.514,0.286-0.772
		c1.082-2.936,2.164-5.866,3.246-8.802c5.617,0,11.234,0,16.851,0c1.032,2.936,2.068,5.866,3.103,8.802
		c0.09,0.259,0.182,0.516,0.271,0.772c0.435,1.236,1.442,2.141,2.81,2.141c4.239,0,8.481,0,12.723,0c1.478,0,2.953,0,4.432,0
		c3.66,0,7.32,0,10.982,0c1.586,0,2.911-1.326,2.911-2.913c0-9.616,0-19.234,0-28.851c4.246,6.984,8.491,13.966,12.739,20.951
		c1.418,2.334,2.836,4.665,4.255,6.998c0.163,0.271,0.331,0.578,0.509,0.901c0.527,0.953,1.136,2.021,1.977,2.514
		c1.975,1.155,5.861,0.399,7.998,0.399c2.816,0,5.633,0,8.449,0c1.586,0,2.911-1.326,2.911-2.913c0-21.783,0-43.565,0-65.347
		C199.894,109.96,198.568,108.637,196.982,108.637z M174.526,43.014v10.227h-20.009v8.449h19.118v9.337h-19.118v8.894h20.009v10.227
		h-31.571V43.014H174.526z M61.705,90.148H50.144V71.917H34.58v18.231H23.019V43.014H34.58v17.341h15.563V43.014h11.561V90.148z
		 M97.762,53.241H77.753v8.449h19.119v9.337H77.753v8.894h20.009v10.227H66.191V43.014h31.571V53.241z M96.872,58.778
		c0,0-10.804,0-16.207,0c0-0.875,0-1.75,0-2.625c5.698,0,16.192,0,16.192,0L96.872,58.778z M96.872,73.938l-0.015,3.071
		c0,0-10.494,0-16.192,0c0-1.024,0-2.048,0-3.071C86.068,73.938,96.872,73.938,96.872,73.938z M129.447,90.148L119.02,71.027h-6.1
		v19.121h-11.561V43.014h13.113h10.968c7.701,0,13.946,6.058,13.946,13.76c0,6.236-4.093,11.329-9.737,13.113l11.378,20.261H129.447
		z M140.043,64.964c0,5.828,0,11.656,0,17.485c-2.108-3.758-4.22-7.515-6.33-11.272C136.354,69.638,138.539,67.5,140.043,64.964z
		 M86.916,151.618H61.023v25.277H44.994v-65.347h18.641h25.129v14.178H61.023v12.33h25.893V151.618z M196.982,176.896h-14.978
		l-23.86-39.243v39.243h-10.982h-4.432h-12.723l-4.13-11.713h-20.925l-4.319,11.713H83.479l23.573-65.347h15.928l19.75,53.373
		v-53.373h17.916l20.924,39.644v-39.644h15.412V176.896z"/>
	<path fill="#0B1742" d="M115.32,131.744c-6.426,0-11.656,5.229-11.656,11.655c0,6.428,5.23,11.657,11.656,11.657
		c6.428,0,11.655-5.229,11.655-11.657C126.976,136.973,121.748,131.744,115.32,131.744z M115.32,152.146
		c-11.277-0.417-11.277-17.075,0-17.491c4.897-0.18,8.574,4.118,8.744,8.745C124.245,148.297,119.947,151.974,115.32,152.146z"/>
	<polygon fill="#FFDE55" points="50.144,60.355 34.58,60.355 34.58,43.014 23.019,43.014 23.019,90.148 34.58,90.148 34.58,71.917 
		50.144,71.917 50.144,90.148 61.705,90.148 61.705,43.014 50.144,43.014 	"/>
	<polygon fill="#FFDE55" points="66.191,90.148 97.762,90.148 97.762,79.921 77.753,79.921 77.753,71.027 96.872,71.027 
		96.872,61.69 77.753,61.69 77.753,53.241 97.762,53.241 97.762,43.014 66.191,43.014 	"/>
	<path fill="#FFDE55" d="M139.387,56.774c0-7.703-6.245-13.76-13.946-13.76h-10.968h-13.113v47.134h11.561V71.027h6.1l10.428,19.121
		h11.58l-11.378-20.261C135.294,68.103,139.387,63.01,139.387,56.774z M112.92,52.351h12.074c2.103,0,4.06,2.79,4.06,4.892
		c0,2.1-1.957,4.89-4.06,4.89H112.92V52.351z"/>
	<g>
		<polygon fill="#FFDE55" points="174.526,90.148 174.526,79.921 154.518,79.921 154.518,71.027 173.636,71.027 173.636,61.69 
			154.518,61.69 154.518,53.241 174.526,53.241 174.526,43.014 142.955,43.014 142.955,90.148 		"/>
	</g>
	<polygon fill="#FFDE55" points="61.023,125.727 88.765,125.727 88.765,111.549 63.635,111.549 44.994,111.549 44.994,176.896 
		61.023,176.896 61.023,151.618 86.916,151.618 86.916,138.057 61.023,138.057 	"/>
	<path fill="#FFDE55" d="M181.57,151.192l-20.924-39.644H142.73v53.373l-19.75-53.373h-15.928l-23.573,65.347h17.154l4.319-11.713
		h20.925l4.13,11.713h12.723h4.432h10.982v-39.243l23.86,39.243h14.978v-65.347H181.57V151.192z M115.32,155.057
		c-6.426,0-11.656-5.229-11.656-11.657c0-6.427,5.23-11.655,11.656-11.655c6.428,0,11.655,5.229,11.655,11.655
		C126.976,149.827,121.748,155.057,115.32,155.057z"/>
	<path fill="#F31361" d="M126.131,57.237c0-0.848-0.789-1.974-1.637-1.974h-8.679v3.948h8.679
		C125.342,59.21,126.131,58.083,126.131,57.237z"/>
</g>
</svg>
