<?xml version="1.0" encoding="utf-8"?>
<!-- Generator: Adobe Illustrator 16.0.0, SVG Export Plug-In . SVG Version: 6.00 Build 0)  -->
<!DOCTYPE svg PUBLIC "-//W3C//DTD SVG 1.1//EN" "http://www.w3.org/Graphics/SVG/1.1/DTD/svg11.dtd">
<svg version="1.1" id="Layer_1" xmlns="http://www.w3.org/2000/svg" xmlns:xlink="http://www.w3.org/1999/xlink" x="0px" y="0px"
	 width="198px" height="44px" viewBox="0 0 198 44" enable-background="new 0 0 198 44" xml:space="preserve">
<path fill="#F5146C" stroke="#F5146C" stroke-width="0.9302" stroke-miterlimit="10" d="M72.98,14.79c-0.806,0-1.61,0-2.417,0
	c-1.045,0-2.089,0-3.134,0c0,0.719,0,1.438,0,2.157c1.822,0,3.645,0,5.467,0C73.914,16.536,73.863,14.79,72.98,14.79z"/>
<path fill="#F5146C" stroke="#F5146C" stroke-width="0.9302" stroke-miterlimit="10" d="M54.426,16.658v-1.289
	c-3.304,0-6.607,0-9.91,0c0,0.43,0,0.859,0,1.289C47.818,16.658,51.122,16.658,54.426,16.658z"/>
<path fill="#F5146C" stroke="#F5146C" stroke-width="0.9302" stroke-miterlimit="10" d="M79.157,25.031
	c1.208,2.152,2.417,4.303,3.624,6.455c0-3.295,0-6.59,0-9.883C81.861,22.982,80.635,24.146,79.157,25.031z"/>
<path fill="#F5146C" stroke="#F5146C" stroke-width="0.9302" stroke-miterlimit="10" d="M44.516,28.536c3.279,0,6.56,0,9.838,0
	c0.023,0,0.048,0,0.072,0l-0.006-1.579c-3.301,0-6.603,0-9.904,0C44.516,27.484,44.516,28.01,44.516,28.536z"/>
<path fill="none" d="M140.396,5.885h-20.569c-0.38,0-0.713,0.333-0.713,0.712v30.71c0,0.38,0.333,0.712,0.713,0.712h7.532
	c0.38,0,0.712-0.332,0.712-0.712V26.142l12.169-0.03v-7.057c0-0.379-0.333-0.711-0.713-0.711h-11.456v-4.37h12.325
	c0.38,0,0.713-0.333,0.713-0.712V6.598C141.109,6.218,140.776,5.885,140.396,5.885z"/>
<path fill="none" d="M137.289,37.65c0.149,0.214,0.412,0.369,0.623,0.369h8.062c0.324,0,0.568-0.213,0.723-0.635l1.798-4.869h8.843
	l1.724,4.889c0.1,0.28,0.304,0.615,0.716,0.615h13.224c0.38,0,0.712-0.332,0.712-0.712V21.41l9.166,15.075
	c0.082,0.133,0.164,0.275,0.247,0.422c0.214,0.375,0.504,0.885,0.729,1.017c0.122,0.071,0.447,0.192,1.258,0.192
	c0.389,0,0.781-0.025,1.151-0.049c0.414-0.025,0.778-0.047,1.092-0.047h3.896c0.38,0,0.713-0.332,0.713-0.712V6.598
	c0-0.379-0.333-0.712-0.713-0.712h-7.242c-0.38,0-0.712,0.333-0.712,0.712v15.757l-8.535-16.169c-0.074-0.142-0.333-0.3-0.586-0.3
	h-8.419c-0.38,0-0.713,0.333-0.713,0.712v21.125l-7.846-21.201c-0.156-0.422-0.399-0.636-0.724-0.636h-7.484
	c-0.328,0-0.571,0.211-0.722,0.626l-7.08,19.63h0.001l-3.997,11.079C137.135,37.381,137.213,37.543,137.289,37.65z"/>
<path fill="none" d="M24.42,38.02h40.9c0.381,0,0.714-0.332,0.714-0.712V25.562h2.839l6.621,12.141
	c0.098,0.181,0.354,0.316,0.594,0.316h7.546c0.069,0,0.138-0.012,0.212-0.035l0.424-0.139l0.425,0.135
	c0.085,0.025,0.151,0.039,0.194,0.039h20.57c0.38,0,0.713-0.332,0.713-0.712v-6.664c0-0.255-0.082-0.368-0.154-0.44l-0.122-0.121
	c-0.126-0.109-0.251-0.15-0.437-0.15H93.135v-4.369h11.744c0.38,0,0.713-0.334,0.713-0.713v-6.084c0-0.379-0.333-0.712-0.713-0.712
	H93.135v-4.08h12.324c0.38,0,0.713-0.333,0.713-0.712V6.598c0-0.379-0.333-0.712-0.713-0.712h-20.57
	c-0.379,0-0.711,0.333-0.711,0.712v7.518l-2.561-3.88c-0.933-1.415-2.184-2.53-3.717-3.317c-1.877-0.963-3.998-1.043-6.011-1.043
	l-1.981,0.01H24.42c-0.379,0-0.712,0.333-0.712,0.712v10.586h-8.716V6.598c0-0.379-0.333-0.712-0.713-0.712H6.747
	c-0.38,0-0.712,0.333-0.712,0.712v30.71c0,0.38,0.332,0.712,0.712,0.712h7.532c0.38,0,0.713-0.332,0.713-0.712V26.142h8.716v11.166
	C23.708,37.688,24.041,38.02,24.42,38.02z"/>
<g>
	<path fill="#F5146C" d="M195.212,2.831l-0.12-0.125C194.633,2.244,194.034,2,193.36,2H4.64c-1.373,0-2.49,1.117-2.49,2.49v35.02
		c0,1.373,1.117,2.49,2.49,2.49H193.36c1.373,0,2.49-1.117,2.49-2.49V4.49C195.851,3.831,195.613,3.222,195.212,2.831z
		 M141.189,26.142l7.08-19.63c0.15-0.416,0.394-0.626,0.722-0.626h7.484c0.324,0,0.567,0.214,0.724,0.636l7.846,21.201V6.598
		c0-0.379,0.333-0.712,0.713-0.712h8.419c0.253,0,0.512,0.158,0.586,0.3l8.535,16.169V6.598c0-0.379,0.332-0.712,0.712-0.712h7.242
		c0.38,0,0.713,0.333,0.713,0.712v30.71c0,0.38-0.333,0.712-0.713,0.712h-3.896c-0.313,0-0.678,0.021-1.092,0.047
		c-0.37,0.023-0.763,0.049-1.151,0.049c-0.811,0-1.136-0.121-1.258-0.192c-0.226-0.132-0.516-0.642-0.729-1.017
		c-0.083-0.146-0.165-0.289-0.247-0.422l-9.166-15.075v15.898c0,0.38-0.332,0.712-0.712,0.712h-13.224
		c-0.412,0-0.616-0.335-0.716-0.615l-1.724-4.889h-8.843l-1.798,4.869c-0.154,0.422-0.398,0.635-0.723,0.635h-8.062
		c-0.211,0-0.474-0.155-0.623-0.369c-0.076-0.107-0.154-0.27-0.096-0.43L141.189,26.142L141.189,26.142z M141.109,13.261
		c0,0.379-0.333,0.712-0.713,0.712h-12.325v4.37h11.456c0.38,0,0.713,0.333,0.713,0.711v7.057l-12.169,0.03v11.166
		c0,0.38-0.332,0.712-0.712,0.712h-7.532c-0.38,0-0.713-0.332-0.713-0.712V6.598c0-0.379,0.333-0.712,0.713-0.712h20.569
		c0.38,0,0.713,0.333,0.713,0.712V13.261z M14.992,26.142v11.166c0,0.38-0.333,0.712-0.713,0.712H6.747
		c-0.38,0-0.712-0.332-0.712-0.712V6.598c0-0.379,0.332-0.712,0.712-0.712h7.532c0.38,0,0.713,0.333,0.713,0.712v10.586h8.716V6.598
		c0-0.379,0.333-0.712,0.712-0.712h45.488l1.981-0.01c2.013,0,4.134,0.08,6.011,1.043c1.533,0.787,2.784,1.902,3.717,3.317
		l2.561,3.88V6.598c0-0.379,0.332-0.712,0.711-0.712h20.57c0.38,0,0.713,0.333,0.713,0.712v6.664c0,0.379-0.333,0.712-0.713,0.712
		H93.135v4.08h11.744c0.38,0,0.713,0.333,0.713,0.712v6.084c0,0.379-0.333,0.713-0.713,0.713H93.135v4.369h12.324
		c0.186,0,0.311,0.041,0.437,0.15l0.122,0.121c0.072,0.072,0.154,0.186,0.154,0.44v6.664c0,0.38-0.333,0.712-0.713,0.712h-20.57
		c-0.043,0-0.109-0.014-0.194-0.039l-0.425-0.135l-0.424,0.139c-0.074,0.023-0.143,0.035-0.212,0.035h-7.546
		c-0.24,0-0.496-0.136-0.594-0.316l-6.621-12.141h-2.839v11.745c0,0.38-0.333,0.712-0.714,0.712h-40.9
		c-0.379,0-0.712-0.332-0.712-0.712V26.142H14.992z"/>
	<path fill="#F5146C" d="M193.36,44H4.64c-2.476,0-4.49-2.014-4.49-4.49V4.49C0.149,2.014,2.164,0,4.64,0H193.36
		c1.199,0,2.317,0.459,3.148,1.294l0.147,0.153c0.741,0.721,1.194,1.848,1.194,3.043v35.02C197.851,41.986,195.836,44,193.36,44z
		 M191.578,40h1.782c0.271,0,0.49-0.22,0.49-0.49v-1.422C193.545,39.104,192.658,39.87,191.578,40z M173.327,40h10.474
		c-0.373-0.077-0.688-0.193-0.959-0.354c-0.634-0.369-1.018-0.984-1.453-1.75c-0.072-0.127-0.141-0.248-0.21-0.358l-5.466-8.989
		v8.759C175.713,38.692,174.669,39.838,173.327,40z M146.306,40h13.145c-1.033-0.125-1.888-0.84-2.273-1.928l-1.254-3.557h-6.034
		l-1.315,3.562C148.171,39.176,147.337,39.877,146.306,40z M127.686,40h9.918c-0.762-0.096-1.49-0.54-1.955-1.207
		c-0.482-0.68-0.607-1.508-0.334-2.258l3.037-8.419l-8.28,0.021v9.171C130.071,38.692,129.027,39.838,127.686,40z M105.785,40
		h13.716c-1.343-0.162-2.387-1.308-2.387-2.692V6.598c0-1.224,0.815-2.261,1.932-2.598H106.24c1.116,0.336,1.932,1.374,1.932,2.598
		v6.664c0,1.496-1.217,2.712-2.713,2.712H95.135v0.08h9.744c1.496,0,2.713,1.217,2.713,2.712v6.084c0,1.496-1.217,2.713-2.713,2.713
		h-9.744v0.369h10.324c0.67,0,1.258,0.216,1.748,0.641l0.219,0.211c0.487,0.48,0.746,1.125,0.746,1.86v6.664
		C108.172,38.692,107.128,39.838,105.785,40z M83.954,40h0.637c-0.102-0.014-0.205-0.033-0.313-0.061
		C84.168,39.967,84.061,39.986,83.954,40z M65.647,40h10.116c-0.856-0.104-1.631-0.609-2.029-1.346l-5.7-10.453v9.106
		C68.034,38.692,66.99,39.838,65.647,40z M14.606,40h9.487c-1.342-0.162-2.386-1.308-2.386-2.692v-9.166h-4.716v9.166
		C16.992,38.692,15.949,39.838,14.606,40z M4.149,38.088v1.422c0,0.271,0.22,0.49,0.49,0.49h1.781
		C5.342,39.87,4.455,39.104,4.149,38.088z M184.977,36.113c0.328,0.008,0.77-0.018,1.142-0.041c0.484-0.029,0.89-0.053,1.238-0.053
		h2.608V7.885h-4.667v22.542L173.398,7.885h-6.354V36.02h4.668V14.271l12.875,21.174c0.086,0.139,0.182,0.305,0.278,0.475
		C184.895,35.971,184.934,36.039,184.977,36.113z M160.694,36.02h5.288L155.571,7.885H149.9L139.753,36.02h5.316l2.032-5.504h11.651
		L160.694,36.02z M121.114,36.02h4.957V24.146l12.169-0.029v-3.774h-12.169v-8.37h13.038V7.885h-17.995V36.02z M85.127,36.02h19.045
		v-4.088H91.135v-8.369h12.457v-3.509H91.135v-8.08h13.037V7.885H86.178v12.894l-6.229-9.442c-0.741-1.124-1.737-2.011-2.961-2.639
		c-1.479-0.759-3.329-0.822-5.098-0.822l-1.972,0.01h-44.21v11.299H12.992V7.885H8.035V36.02h4.957V24.142h12.716V36.02h38.326
		V23.562h6.026l6.793,12.457h6.566l0.838-0.273L85.127,36.02z M130.071,16.343h9.456c1.109,0,2.064,0.668,2.485,1.624l4.375-12.134
		c0.34-0.937,0.992-1.583,1.814-1.833h-7.024c1.116,0.336,1.932,1.374,1.932,2.598v6.663c0,1.496-1.217,2.712-2.713,2.712h-10.325
		V16.343z M157.26,4c0.817,0.25,1.47,0.894,1.815,1.828l3.97,10.728V6.598c0-1.224,0.815-2.261,1.932-2.598H157.26z M16.992,15.184
		h4.716V6.598c0-1.224,0.815-2.261,1.931-2.598h-8.577c1.116,0.336,1.931,1.374,1.931,2.598V15.184z M174.953,4
		c0.679,0.202,1.269,0.659,1.582,1.259l4.763,9.022V6.598c0-1.224,0.814-2.261,1.931-2.598H174.953z M74.752,4
		c1.356,0.147,2.746,0.464,4.061,1.139c1.293,0.664,2.42,1.522,3.365,2.563V6.598c0-1.224,0.814-2.261,1.93-2.598H74.752z
		 M192.033,4c0.869,0.262,1.556,0.949,1.817,1.818V4.49c0-0.14-0.039-0.228-0.053-0.247l-0.15-0.155
		C193.614,4.056,193.535,4,193.36,4H192.033z M4.64,4c-0.271,0-0.49,0.22-0.49,0.49v1.328C4.41,4.949,5.098,4.262,5.966,4H4.64z"/>
</g>
<g>
	<path fill="#07174B" d="M105.459,4.49h-20.57c-1.147,0-2.107,0.958-2.107,2.107c0,0.957,0,1.913,0,2.869
		c-1.033-1.566-2.463-2.876-4.244-3.79C75.83,4.289,72.844,4.49,69.906,4.49H57.789h-2.344h-20.57h-2.922H24.42
		c-1.148,0-2.107,0.958-2.107,2.107c0,3.064,0,6.127,0,9.191c-1.975,0-3.949,0-5.926,0c0-3.063,0-6.127,0-9.191
		c0-1.149-0.957-2.107-2.107-2.107H6.747c-1.148,0-2.107,0.958-2.107,2.107v30.71c0,1.148,0.959,2.107,2.107,2.107
		c2.511,0,5.022,0,7.532,0c1.15,0,2.107-0.959,2.107-2.107c0-3.257,0-6.515,0-9.771c1.977,0,3.951,0,5.926,0
		c0,3.256,0,6.514,0,9.771c0,1.148,0.959,2.107,2.107,2.107c2.512,0,5.021,0,7.533,0c0.92,0,1.898,0,2.922,0
		c6.856,0,13.713,0,20.57,0c0.814,0,1.598,0,2.344,0c2.511,0,5.021,0,7.531,0c1.15,0,2.109-0.959,2.109-2.107
		c0-3.45,0-6.899,0-10.351c0.205,0,0.41,0,0.615,0c2.074,3.805,4.148,7.609,6.223,11.414c0.354,0.646,1.096,1.044,1.82,1.044
		c2.516,0,5.031,0,7.546,0c0.229,0,0.443-0.039,0.644-0.104c0.195,0.062,0.399,0.104,0.611,0.104c6.857,0,13.715,0,20.57,0
		c1.149,0,2.108-0.959,2.108-2.107c0-2.222,0-4.442,0-6.664c0-0.62-0.227-1.093-0.565-1.431c-0.017-0.02-0.035-0.036-0.053-0.055
		c-0.021-0.02-0.039-0.039-0.061-0.058c-0.338-0.339-0.81-0.564-1.43-0.564c-3.643,0-7.285,0-10.93,0c0-0.526,0-1.052,0-1.579
		c3.451,0,6.899,0,10.35,0c1.148,0,2.108-0.959,2.108-2.107c0-2.028,0-4.056,0-6.084c0-1.149-0.96-2.107-2.108-2.107
		c-3.45,0-6.898,0-10.35,0c0-0.43,0-0.859,0-1.289c3.645,0,7.287,0,10.93,0c1.149,0,2.108-0.959,2.108-2.108
		c0-2.221,0-4.442,0-6.664C107.567,5.449,106.608,4.49,105.459,4.49z M31.953,37.308H24.42V25.429H14.279v11.879H6.747V6.598h7.532
		v11.299H24.42V6.598h7.533V37.308z M54.426,28.536c-0.024,0-0.049,0-0.072,0c-3.278,0-6.559,0-9.838,0c0-0.526,0-1.052,0-1.579
		c3.302,0,6.604,0,9.904,0L54.426,28.536z M55.445,37.308h-20.57V6.598h20.57v6.664H42.408v5.504h12.457v6.084H42.408v5.794h13.037
		V37.308z M54.426,15.369v1.289c-3.304,0-6.607,0-9.91,0c0-0.43,0-0.859,0-1.289C47.818,15.369,51.122,15.369,54.426,15.369z
		 M76.088,37.308L69.295,24.85H65.32v12.458h-7.531V6.598h8.543h7.146c5.019,0,9.088,3.947,9.088,8.966
		c0,4.062-2.667,7.381-6.345,8.543l7.413,13.201H76.088z M82.781,21.603c0,3.293,0,6.588,0,9.883
		c-1.207-2.152-2.416-4.303-3.624-6.455C80.635,24.146,81.861,22.982,82.781,21.603z M105.459,13.261H92.422v5.504h12.457v6.084
		H92.422v5.794h13.037v6.664h-20.57V6.598h20.57V13.261z"/>
	<path fill="#07174B" d="M73.188,12.681H65.32v6.373h7.867c1.369,0,2.645-1.817,2.645-3.186
		C75.832,14.499,74.557,12.681,73.188,12.681z M72.896,16.947c-1.822,0-3.645,0-5.467,0c0-0.719,0-1.438,0-2.157
		c1.045,0,2.089,0,3.134,0c0.807,0,1.611,0,2.417,0C73.863,14.79,73.914,16.536,72.896,16.947z"/>
	<path fill="#07174B" d="M191.252,4.49h-7.242c-1.148,0-2.107,0.958-2.107,2.107c0,3.375,0,6.75,0,10.124
		c-1.969-3.729-3.938-7.458-5.904-11.188c-0.343-0.648-1.104-1.043-1.821-1.043h-8.419c-1.149,0-2.108,0.958-2.108,2.107
		c0,4.444,0,8.889,0,13.333c-1.714-4.631-3.428-9.262-5.142-13.894c-0.329-0.89-1.033-1.547-2.032-1.547h-7.484
		c-0.993,0-1.711,0.655-2.033,1.547c-1.774,4.918-3.549,9.836-5.322,14.755c0-0.579,0-1.158,0-1.737
		c0-1.148-0.959-2.107-2.108-2.107c-3.354,0-6.706,0-10.061,0c0-0.526,0-1.053,0-1.579c3.644,0,7.287,0,10.93,0
		c1.148,0,2.108-0.958,2.108-2.108c0-2.221,0-4.442,0-6.663c0-1.149-0.96-2.107-2.108-2.107h-20.569
		c-1.148,0-2.108,0.958-2.108,2.107c0,10.236,0,20.473,0,30.71c0,1.148,0.96,2.107,2.108,2.107c2.511,0,5.021,0,7.532,0
		c1.149,0,2.107-0.959,2.107-2.107c0-3.257,0-6.515,0-9.771c3.245,0,6.491,0,9.736,0c-1.107,3.069-2.215,6.14-3.322,9.209
		c-0.472,1.308,0.742,2.669,2.031,2.669c2.688,0,5.376,0,8.062,0c0.999,0,1.703-0.656,2.032-1.548
		c0.486-1.318,0.974-2.639,1.46-3.957c2.295,0,4.589,0,6.883,0c0.466,1.318,0.931,2.639,1.396,3.957
		c0.315,0.895,1.045,1.548,2.032,1.548c4.408,0,8.815,0,13.224,0c1.149,0,2.107-0.959,2.107-2.107c0-3.64,0-7.278,0-10.918
		c1.537,2.527,3.073,5.054,4.61,7.581c0.655,1.08,1.312,2.158,1.969,3.238c0.395,0.648,0.786,1.521,1.462,1.918
		c1.085,0.636,3.025,0.288,4.207,0.288c1.299,0,2.598,0,3.896,0c1.149,0,2.108-0.959,2.108-2.107V6.598
		C193.36,5.449,192.401,4.49,191.252,4.49z M127.359,25.429v11.879h-7.532V6.598h8.76h11.81v6.663h-13.037v5.794h12.168v6.374
		H127.359z M191.252,37.308h-7.038l-11.213-18.442v18.442h-5.161h-2.082h-5.98l-1.94-5.505h-9.833l-2.029,5.505h-8.062l11.079-30.71
		h7.484l9.282,25.082V6.598h8.419l9.833,18.63V6.598h7.242V37.308z"/>
	<path fill="#07174B" d="M152.876,16.088c-3.021,0-5.478,2.458-5.478,5.478c0,3.021,2.457,5.479,5.478,5.479
		s5.479-2.458,5.479-5.479C158.354,18.546,155.896,16.088,152.876,16.088z M152.876,24.938c-4.347-0.209-4.347-6.534,0-6.742
		C157.228,17.988,157.207,24.73,152.876,24.938z"/>
</g>
<g>
	<polygon fill="#FFDE55" points="24.42,17.896 14.279,17.896 14.279,6.598 6.747,6.598 6.747,37.308 14.279,37.308 14.279,25.429 
		24.42,25.429 24.42,37.308 31.953,37.308 31.953,6.598 24.42,6.598 	"/>
	<polygon fill="#FFDE55" points="42.408,24.85 54.865,24.85 54.865,18.766 42.408,18.766 42.408,13.261 55.445,13.261 55.445,6.598 
		34.875,6.598 34.875,37.308 55.445,37.308 55.445,30.644 42.408,30.644 	"/>
	<path fill="#FFDE55" d="M82.565,15.563c0-5.019-4.069-8.966-9.088-8.966h-7.146h-8.543v30.71h7.531V24.85h3.975l6.793,12.458h7.546
		l-7.413-13.201C79.898,22.944,82.565,19.626,82.565,15.563z M73.188,19.054H65.32v-6.373h7.867c1.369,0,2.645,1.818,2.645,3.188
		C75.832,17.237,74.557,19.054,73.188,19.054z"/>
	<g>
		<polygon fill="#FFDE55" points="84.889,37.308 105.459,37.308 105.459,30.644 92.422,30.644 92.422,24.85 104.879,24.85 
			104.879,18.766 92.422,18.766 92.422,13.261 105.459,13.261 105.459,6.598 84.889,6.598 		"/>
	</g>
	<g>
		<polygon fill="#FFDE55" points="139.527,19.055 127.359,19.055 127.359,13.261 140.396,13.261 140.396,6.598 128.587,6.598 
			119.827,6.598 119.827,37.308 127.359,37.308 127.359,25.429 139.527,25.429 		"/>
	</g>
	<g>
		<g>
			<path fill="#FFDE55" d="M184.01,25.228l-9.833-18.63h-8.419V31.68l-9.282-25.082h-7.484l-11.079,30.71h8.062l2.029-5.505h9.833
				l1.94,5.505h5.98h2.082h5.161V18.865l11.213,18.442h7.038V6.598h-7.242V25.228z M152.876,27.045
				c-3.021,0-5.478-2.458-5.478-5.479c0-3.02,2.457-5.478,5.478-5.478s5.479,2.458,5.479,5.478
				C158.354,24.587,155.896,27.045,152.876,27.045z"/>
		</g>
	</g>
</g>
<path fill="#F5146C" d="M152.876,17.849c-4.795,0.229-4.795,7.208,0,7.437C157.654,25.057,157.678,17.619,152.876,17.849z"/>
</svg>
